<svg id="Calque_1" data-name="Calque 1" xmlns="http://www.w3.org/2000/svg" viewBox="0 0 285 285"><defs><style>.cls-1{fill:#405969;}.cls-2{fill:#5da781;}</style></defs><path class="cls-1" d="M142.5,47a95.5,95.5,0,1,0,95.5,95.5A95.5,95.5,0,0,0,142.5,47Zm0,166a70.5,70.5,0,1,1,70.5-70.5A70.49,70.49,0,0,1,142.5,213Z"/><path class="cls-2" d="M221.56,240.81a12.68,12.68,0,0,0-16.83-2.74,114.1,114.1,0,0,1-124.46,0,12.68,12.68,0,0,0-16.83,2.74h0a12.71,12.71,0,0,0,1.94,17.87c.31.25.63.48,1,.7a139.6,139.6,0,0,0,152.32,0,12.71,12.71,0,0,0,3.6-17.61c-.22-.33-.45-.65-.7-1Z"/></svg>